<svg xmlns="http://www.w3.org/2000/svg" viewBox="0 0 180 150" role="img" aria-labelledby="title desc">
  <title id="title">Cage card evidence</title>
  <desc id="desc">Illustrated handwritten cage card used as source evidence.</desc>
  <rect x="22" y="20" width="136" height="108" rx="8" fill="#fffdf7" stroke="#d8cdb8" stroke-width="3"/>
  <rect x="22" y="20" width="136" height="24" rx="8" fill="#eaf4ff"/>
  <path d="M22 44h136" stroke="#d8cdb8" stroke-width="3"/>
  <path d="M42 20v108M91 44v84M126 44v84" stroke="#e4dccd" stroke-width="2"/>
  <g stroke="#728094" stroke-width="3" stroke-linecap="round">
    <path d="M52 57h26M52 72h20M52 88h30M52 105h18"/>
    <path d="M99 57h19M99 72h15M99 88h20M99 105h18"/>
    <path d="M133 57h11M133 72h13M133 88h10M133 105h14"/>
  </g>
  <circle cx="43" cy="31" r="5" fill="#0f6b5f"/>
  <circle cx="138" cy="31" r="5" fill="#d99a24"/>
  <path d="M35 134c22-9 56-10 86-5 12 2 22 4 29 2" fill="none" stroke="#b9c6d3" stroke-width="4" stroke-linecap="round"/>
</svg>
