<svg xmlns="http://www.w3.org/2000/svg" viewBox="0 0 220 130" role="img" aria-labelledby="title desc">
  <title id="title">IVC cage</title>
  <desc id="desc">Illustrated mouse cage for cage and location cards.</desc>
  <defs>
    <linearGradient id="plastic" x1="0" x2="1" y1="0" y2="1">
      <stop offset="0" stop-color="#eef7fb"/>
      <stop offset="1" stop-color="#cfe0e9"/>
    </linearGradient>
    <linearGradient id="bedding" x1="0" x2="1">
      <stop offset="0" stop-color="#e9c884"/>
      <stop offset="1" stop-color="#d9ad62"/>
    </linearGradient>
  </defs>
  <path d="M36 34h149l-14 76H51L36 34Z" fill="url(#plastic)" stroke="#9fb2c1" stroke-width="3"/>
  <path d="M48 79h126l-6 27H55l-7-27Z" fill="url(#bedding)" opacity=".9"/>
  <path d="M29 29h164v16H29z" fill="#d7e7ef" stroke="#9fb2c1" stroke-width="3" rx="4"/>
  <path d="M58 18h105v18H58z" fill="#397fb8" rx="4"/>
  <path d="M76 18h70v-8H76z" fill="#235d95" rx="3"/>
  <path d="M148 51c19 0 31 11 31 27 0 11-5 21-14 27" fill="none" stroke="#90a8b9" stroke-width="4"/>
  <path d="M149 58c11 0 19 8 19 19 0 7-3 14-9 18" fill="none" stroke="#b5c8d5" stroke-width="3"/>
  <path d="M57 47h90M62 61h75M67 75h63" stroke="#ffffff" stroke-width="2" opacity=".75"/>
  <circle cx="64" cy="92" r="3" fill="#c4934f"/>
  <circle cx="92" cy="88" r="3" fill="#bd8845"/>
  <circle cx="123" cy="98" r="3" fill="#c4934f"/>
</svg>
