<svg xmlns="http://www.w3.org/2000/svg" viewBox="0 0 160 160" role="img" aria-labelledby="title desc">
  <title id="title">Mouse avatar</title>
  <desc id="desc">Small illustrated lab mouse avatar for mouse detail cards.</desc>
  <defs>
    <filter id="shadow" x="-20%" y="-20%" width="140%" height="150%">
      <feDropShadow dx="0" dy="6" stdDeviation="7" flood-color="#16342d" flood-opacity=".16"/>
    </filter>
  </defs>
  <circle cx="80" cy="80" r="72" fill="#f7fbff"/>
  <circle cx="80" cy="80" r="71" fill="none" stroke="#d8e4ef" stroke-width="2"/>
  <g filter="url(#shadow)">
    <path d="M37 102c-12 1-20-3-22-9-2-8 5-15 20-14" fill="none" stroke="#6b7480" stroke-width="7" stroke-linecap="round"/>
    <ellipse cx="78" cy="93" rx="43" ry="28" fill="#6e7378"/>
    <ellipse cx="111" cy="84" rx="23" ry="20" fill="#7a8086"/>
    <circle cx="101" cy="62" r="13" fill="#8a8f95"/>
    <circle cx="125" cy="65" r="11" fill="#8a8f95"/>
    <circle cx="125" cy="65" r="6" fill="#f2a7a0"/>
    <circle cx="104" cy="62" r="7" fill="#f2a7a0"/>
    <circle cx="120" cy="80" r="3.8" fill="#111827"/>
    <path d="M131 91c8 1 13 4 15 8" fill="none" stroke="#64717e" stroke-width="2" stroke-linecap="round"/>
    <path d="M132 87c8-1 13 0 18 4" fill="none" stroke="#64717e" stroke-width="2" stroke-linecap="round"/>
    <circle cx="137" cy="84" r="3.6" fill="#f08d84"/>
    <path d="M57 113c-2 6-8 8-15 7" fill="none" stroke="#4d555f" stroke-width="5" stroke-linecap="round"/>
    <path d="M91 115c-1 5-6 8-13 8" fill="none" stroke="#4d555f" stroke-width="5" stroke-linecap="round"/>
  </g>
</svg>
