<svg xmlns="http://www.w3.org/2000/svg" viewBox="0 0 180 150" role="img" aria-labelledby="title desc">
  <title id="title">Workbook export</title>
  <desc id="desc">Illustrated spreadsheet export with review checkmarks.</desc>
  <rect x="22" y="20" width="136" height="104" rx="8" fill="#ffffff" stroke="#d6e0dc" stroke-width="3"/>
  <rect x="22" y="20" width="136" height="24" rx="8" fill="#dff3ef"/>
  <g stroke="#d6e0dc" stroke-width="2">
    <path d="M22 44h136M22 64h136M22 84h136M22 104h136"/>
    <path d="M56 20v104M90 20v104M124 20v104"/>
  </g>
  <g fill="#0f6b5f">
    <circle cx="39" cy="55" r="7"/>
    <circle cx="39" cy="76" r="7"/>
    <circle cx="39" cy="97" r="7"/>
  </g>
  <g fill="none" stroke="#ffffff" stroke-width="3" stroke-linecap="round" stroke-linejoin="round">
    <path d="M35 55l3 3 6-7"/>
    <path d="M35 76l3 3 6-7"/>
    <path d="M35 97l3 3 6-7"/>
  </g>
  <path d="M122 124l15 15 15-15M137 90v46" stroke="#1b72d8" stroke-width="7" stroke-linecap="round" stroke-linejoin="round"/>
</svg>
